<mxfile host="app.diagrams.net" modified="2023-06-28T12:44:58.084Z" agent="Mozilla/5.0 (Windows NT 10.0; Win64; x64) AppleWebKit/537.36 (KHTML, like Gecko) Chrome/114.0.0.0 Safari/537.36" etag="ZcqeNhovFTZNkYcoATXd" version="21.5.1" type="device">
  <diagram name="PÃ¡gina-1" id="3t_ZT3-4tjqLKdx0glDR">
    <mxGraphModel dx="1050" dy="590" grid="1" gridSize="10" guides="1" tooltips="1" connect="1" arrows="1" fold="1" page="1" pageScale="1" pageWidth="827" pageHeight="1169" math="0" shadow="0">
      <root>
        <mxCell id="0" />
        <mxCell id="1" parent="0" />
        <mxCell id="qg99k51ercyg8dbuZ8m7-1" value="ItemList" style="whiteSpace=wrap;html=1;aspect=fixed;" vertex="1" parent="1">
          <mxGeometry x="140" y="70" width="80" height="80" as="geometry" />
        </mxCell>
      </root>
    </mxGraphModel>
  </diagram>
</mxfile>
